<?xml version="1.0" encoding="iso-8859-1"?>
<!-- Generator: Adobe Illustrator 16.0.0, SVG Export Plug-In . SVG Version: 6.00 Build 0)  -->
<!DOCTYPE svg PUBLIC "-//W3C//DTD SVG 1.1//EN" "http://www.w3.org/Graphics/SVG/1.1/DTD/svg11.dtd">
<svg xmlns="http://www.w3.org/2000/svg" xmlns:xlink="http://www.w3.org/1999/xlink" version="1.1" id="Capa_1" x="0px" y="0px" width="512px" height="512px" viewBox="0 0 40 40" style="enable-background:new 0 0 40 40;" xml:space="preserve">
<g>
	<path d="M22.049,22.056c0,1.129-0.918,2.049-2.049,2.049c-1.129,0-2.049-0.92-2.049-2.049c0-1.13,0.92-2.049,2.049-2.049   C21.131,20.006,22.049,20.924,22.049,22.056z M40,8.718v22.563c0,2.762-2.238,5-5,5H5c-2.762,0-5-2.238-5-5v-18.75   c0-2.761,2.238-5,5-5h17.578c0.533-2.188,2.506-3.813,4.857-3.813h7.562C37.762,3.718,40,5.958,40,8.718z M29.553,22.056   c0-1.062-0.859-1.924-1.922-1.924h-2.086c-0.074-0.219-0.16-0.433-0.264-0.641l1.477-1.472c0.748-0.75,0.748-1.967,0-2.718   c-0.754-0.751-1.971-0.751-2.721,0l-1.473,1.471c-0.211-0.101-0.42-0.187-0.645-0.264v-2.084c0-1.062-0.857-1.922-1.922-1.922   c-1.064,0-1.922,0.86-1.922,1.922v2.084c-0.222,0.077-0.438,0.163-0.644,0.264L15.963,15.3c-0.75-0.751-1.969-0.751-2.721,0   c-0.75,0.751-0.75,1.968,0,2.719l1.473,1.47c-0.102,0.208-0.186,0.423-0.262,0.642h-2.084c-1.063,0-1.924,0.863-1.924,1.925   c0,1.061,0.861,1.922,1.924,1.922h2.084c0.076,0.222,0.16,0.435,0.262,0.644l-1.473,1.469c-0.75,0.752-0.75,1.97,0,2.72   c0.375,0.375,0.869,0.563,1.359,0.563c0.494,0,0.983-0.188,1.36-0.563l1.472-1.474c0.205,0.104,0.422,0.188,0.643,0.265v2.086   c0,1.061,0.857,1.922,1.922,1.922c1.062,0,1.922-0.861,1.922-1.922v-2.086c0.223-0.074,0.432-0.16,0.643-0.265l1.475,1.474   c0.375,0.375,0.863,0.563,1.355,0.563s0.984-0.188,1.363-0.563c0.748-0.752,0.748-1.97,0-2.72l-1.477-1.471   c0.104-0.207,0.188-0.422,0.264-0.644h2.086C28.693,23.978,29.553,23.118,29.553,22.056z" fill="#006DF0"/>
</g>
<g>
</g>
<g>
</g>
<g>
</g>
<g>
</g>
<g>
</g>
<g>
</g>
<g>
</g>
<g>
</g>
<g>
</g>
<g>
</g>
<g>
</g>
<g>
</g>
<g>
</g>
<g>
</g>
<g>
</g>
</svg>
